<?xml version="1.0" encoding="UTF-8"?>
<svg xmlns="http://www.w3.org/2000/svg" width="390" height="489" viewBox="0 0 390 489">
  <title>대전광역시 자치구 지도 (동구 선택)</title>
  <desc>Source: Statistics Korea SGIS administrative boundaries (KOGL Type 1), processed by vuski/admdongkor ver20260701 (CC BY 4.0).</desc>
  <g id="regions">
    <path id="dong" data-name="동구" data-code="30110" fill="#123A6A" stroke="#FFFFFF" stroke-width="1" stroke-linejoin="round" d="M218.96,439.7 219.77,441.82 220.72,442.83 222.6,443.1 223.79,442.99 227.11,444.02 227.59,444.35 229.04,445.92 231.09,450.3 232.08,453.02 235.79,454.34 240.63,457.76 241.02,459.91 243.07,460.5 252.05,453.63 257.2,450.6 258.3,450.55 259.15,447.43 259.2,446.35 258.51,445.21 255.67,443.26 255.38,441.92 257.8,440.12 260.42,439.09 262.27,437.54 263.2,435.27 263.48,432.93 273.42,430.2 274.19,429.21 273.99,428.35 272.54,426.85 271.94,424.15 271.74,419.05 272.2,417.85 276.17,415.41 277.31,415.11 280.33,415.12 283.21,413.64 284.42,412.69 284.62,410.26 284.36,408.36 285.89,407.79 291.16,406.81 296.79,403.85 298.65,402.47 298.57,401.14 297.91,399.19 298.67,397.21 299.44,396.74 301.97,396.15 301.89,394.34 302.65,393.07 302.67,392.34 301.76,386.48 300.97,385.67 299.25,385.85 298.17,385.3 296.97,382.61 295.83,376.55 297.15,374.75 298.62,374.45 298.89,373.79 299.05,372.98 298.49,367.2 297.36,366.5 295.79,366.57 294.21,365.24 294.29,362.01 297.05,353.25 297.96,349.47 297.06,346.21 296.89,345.3 297.03,344.76 306.56,335.65 308.22,333.04 308.45,330.67 307.31,325.11 306.61,324.51 299.89,310.1 300.25,307.9 298.88,305.3 297.53,304.4 301.09,305.85 302.6,305.58 308.95,299.71 309.85,297.89 304.32,288.52 306.29,287.49 309.63,283.78 309.66,282.52 308.47,277.89 310.71,275.57 312.98,271.62 314.72,267.92 314.64,266.55 312.91,262.93 311.93,256.89 311.97,248.98 313.02,247.44 315.19,246.76 317.39,246.65 318.55,246.15 320.49,244.04 321.48,242.55 320.12,241.32 319.83,238.69 320.59,235.2 322.01,231.8 327.23,230.22 329.21,228.05 332.27,227.32 335.62,227.76 337.71,221.26 342.16,204.2 341.84,198.26 340.87,196.49 340.32,194.07 340.22,179.46 340.82,177.82 349.47,171.63 350.7,168.5 356.67,163.35 361.33,163.61 361.92,164.95 365.76,164.47 367.24,163.99 370.36,165.54 371.18,166.19 374.38,166.96 376.98,165.24 378,163.27 376.49,162.25 375.52,160.75 374.01,155.03 371.89,151.5 363.11,142.99 361.76,139.81 361.35,134.52 362.8,130.29 360.49,128.84 357.37,128.88 355.34,129.69 352.3,131.39 350.58,131.71 345.09,130.91 344.44,129.08 338.97,125.25 337.6,125.84 335.51,127.57 333.48,129.68 332.2,128.65 331.2,127.36 329.96,126.76 329,126.59 327.63,133.5 322.34,154.67 321.21,151.63 315.36,148.89 313.52,147.22 307.8,131.47 297.78,111.32 294.31,110.99 291.67,110.17 289.04,114.55 288.33,116.31 288.47,118.45 284.34,126.61 278.45,136.18 273.18,144.06 270.95,146.92 267,149.52 264.66,152.47 260.25,154.88 257.78,160.5 256.51,165.3 256.21,173.79 257.71,175.77 257.07,178.3 255.24,183.29 253.35,186.38 253.09,187.19 254.78,191.56 260.08,199.75 262.93,204.6 266.03,211.41 267.73,215.89 270.29,217.1 270.59,218.8 270.49,220.67 269.97,221.56 268.96,224.92 268.88,227.92 269.35,229.13 269.38,230.18 267.94,231.34 261.62,228.07 259.99,227.93 258.69,228.15 256.04,227.62 256.86,225.89 248,226.59 246.71,227.16 246.25,229.2 246.9,228.98 245.84,231.3 241.41,228.98 241.5,227.24 239.36,225.04 239.4,222.74 238.9,219.89 238.22,218.21 236.8,217.45 235.94,217.46 234.38,216.72 230.97,219.19 228.77,219.2 226.89,222.56 225.1,225.09 225.52,228.66 224.73,228.76 223.06,231.65 222.01,234.12 220.76,234.76 218.29,234.55 215.69,234.94 214.2,237.99 217,240.57 213.37,240.24 207.65,241.68 208.98,244.92 211.5,247.75 214.5,249.08 217.69,251.06 220.75,255.5 227.1,261.96 233.35,271.61 237.44,278.72 240.02,286.64 243.37,289.16 245.48,289.05 247,289.72 247.58,290.25 252.55,298.42 257.54,303.97 258.44,304.61 260.07,313.63 260.41,314.2 260.78,314.34 258.81,316.07 254.5,315.16 253.01,314.59 249.94,313.17 247.1,310.73 243.53,310.85 241.94,311.19 240.84,311.7 240.24,312.83 237.06,316.28 231.11,318.67 229.18,318.04 228.69,320.11 228.9,327.89 231.21,330.57 233.24,331.66 234.01,331.73 234.16,332.91 230.49,336.57 232.38,341.52 235.86,342.44 238.72,349.6 238.14,352.34 227.54,362.76 228.2,368.02 224.58,372.02 232.13,372.76 235.88,374.44 234.44,376.19 233.6,376.81 233.63,377.31 234.23,378.78 238.8,385.13 242.14,387.66 242.63,389.99 243.18,395.26 236.87,398.36 236.73,400.21 236.99,404.68 232.84,411.09 231.64,411.72 229.2,411.91 225.16,409.17 221.65,409.55 220.87,411.06 220.57,412.64 221.03,414.24 221.83,414.56 222.9,415.61 223.3,427.84 222.59,429.74 222.5,432.86 223.33,435.16 223.03,435.73 219.52,438.78Z"/>
    <path id="jung" data-name="중구" data-code="30140" fill="#D5ECFF" stroke="#FFFFFF" stroke-width="1" stroke-linejoin="round" d="M207.65,241.68 206.37,238.51 205.41,237.02 204.12,235.67 202.75,234.65 201.49,234.07 196.01,232.33 196.46,238.45 194.9,249.75 189.83,254.94 190.39,255.5 185.15,260.65 181.06,265.83 175.85,275.94 175.56,278.64 176.6,282.76 176.9,287.2 174.33,292.84 171.52,296.27 170.98,298.51 171.01,301.36 172.61,305.69 172.44,307 172,308.05 170.38,311.56 167.12,316.04 161.26,315.52 159.62,318.38 157.65,322.64 156.33,330.56 156.39,332.12 158.74,338.64 160.44,342.62 160.07,346.31 165.11,347.53 166.15,347.37 168.94,349.64 170.97,350.69 174.19,351.86 179.4,356.07 180.46,357.95 181.25,361.19 181.3,362.97 179.06,371.57 178.6,372.55 177.21,373.79 176.73,374.75 176.55,377.63 178.25,384.67 180.17,387.38 181.1,388.03 182.12,389.36 181.45,394.02 178.25,397.13 178.09,399.45 178.31,401.45 189.36,403.75 193.27,405.33 195.23,412.42 197.97,418.62 201.4,420.48 204.13,424.03 205.41,426.24 205.45,427.07 203.39,430.07 202.35,432.75 204.52,434.59 206.91,435.15 210.5,438.27 215.59,441.34 216.31,440.24 218.96,439.7 219.52,438.78 223.03,435.73 223.33,435.16 222.5,432.86 222.59,429.74 223.3,427.84 222.9,415.61 221.83,414.56 221.03,414.24 220.57,412.64 220.87,411.06 221.65,409.55 225.16,409.17 229.2,411.91 231.64,411.72 232.84,411.09 236.99,404.68 236.73,400.21 236.87,398.36 243.18,395.26 242.63,389.99 242.14,387.66 238.8,385.13 234.23,378.78 233.63,377.31 233.6,376.81 234.44,376.19 235.88,374.44 232.13,372.76 224.58,372.02 228.2,368.02 227.54,362.76 238.14,352.34 238.72,349.6 235.86,342.44 232.38,341.52 230.49,336.57 234.16,332.91 234.01,331.73 233.24,331.66 231.21,330.57 228.9,327.89 228.69,320.11 229.18,318.04 231.11,318.67 237.06,316.28 240.24,312.83 240.84,311.7 241.94,311.19 243.53,310.85 247.1,310.73 249.94,313.17 253.01,314.59 254.5,315.16 258.81,316.07 260.78,314.34 260.41,314.2 260.07,313.63 258.44,304.61 257.54,303.97 252.55,298.42 247.58,290.25 247,289.72 245.48,289.05 243.37,289.16 240.02,286.64 237.44,278.72 233.35,271.61 227.1,261.96 220.75,255.5 217.69,251.06 214.5,249.08 211.5,247.75 208.98,244.92Z"/>
    <path id="seo" data-name="서구" data-code="30170" fill="#D5ECFF" stroke="#FFFFFF" stroke-width="1" stroke-linejoin="round" d="M196.01,232.33 196.43,230.27 196.44,225.92 196.32,223.25 195.94,221.72 193.03,216.45 187.99,210.8 186.48,210.78 186.3,200.27 186.69,199.26 184.4,199.06 182.64,198.35 180.6,197.99 172.37,199.08 169.51,198.97 162.82,202.37 160.07,204.07 155.5,208.29 152.25,210.19 149.73,212 141.69,219.35 133.04,229.68 132.55,232.67 137.2,251.2 138.18,257.4 137.93,258.6 119.74,258.52 119.69,261.44 117.15,261.47 117.15,264.22 118.03,272.11 119.05,278.51 119.33,279.48 121.64,279.54 120.54,286.3 118.91,286.92 115.31,290.43 114.07,291.78 113.03,294.04 113.04,298.86 113.37,298.88 113.36,303.33 109.69,303.5 103.87,305.85 101.72,308.36 100.76,309.77 98.37,316.98 98.22,322.68 97.89,323.77 96.64,325.3 95.76,325.92 94.53,326.45 93.15,326.53 91.44,327.75 87.58,331.95 86.98,336.04 87.05,337.63 85.9,339.61 83.57,341.29 83.08,343.13 83.25,345.77 78.02,348.72 75.26,349.5 69.63,353.23 67.66,355.86 66.73,357.74 65.79,358.32 64.99,358 63.94,359.82 58.13,363.03 56.02,364.48 55.14,365.25 53.54,367.35 53.33,368.18 54.13,369.54 53.33,372.97 52.22,373.37 51.15,375.32 51.64,378.55 52.58,382.3 52.32,384.85 50.67,386.46 48.85,387.42 51.1,387.4 54.54,395.35 54.64,398.3 60.77,403.7 64.24,407.59 66.25,411.74 66.61,414.8 67.34,418.03 71.53,419.68 75.27,420.83 76.82,420.76 78.37,420.09 78.88,419.32 78.95,418.72 78.04,412.42 78.46,409.93 79.17,409.48 80.32,409.73 81.89,412.68 84.97,415.75 86.59,416.26 91.73,419.06 97.92,429.25 100.05,431.8 99.84,433.15 99.06,434.08 99.2,437.7 102.04,446.82 102.55,447.27 107.86,445.9 113.79,450.66 114.13,451.16 114.23,452.11 110.16,459.95 110.88,461.41 111.6,464.67 112.16,469.4 112.09,473.75 111.75,474.73 112.09,475.08 114.71,476.26 116.08,475.75 122.63,467.72 124.08,461.71 126.47,456.6 127.36,456.11 128.62,455.91 130.67,455.08 130.96,454.01 130.88,448.73 130.45,448.27 129.82,448.15 129.92,447 133.31,439.72 137.21,434.55 139.41,433.12 144.79,431.48 145.15,427.67 146.05,424.79 147.06,424.96 150.43,424.15 151,422.64 150.1,419.3 149.26,417.51 145.8,414.38 145.49,412.67 149.03,404.77 147.75,402.08 150.75,388.28 150.89,382.33 150.15,376.33 147.05,373.51 146.23,367.57 145.79,361.09 145.03,360.22 145.81,358.2 146.63,357.6 147.59,355.4 148.63,350.68 149.79,349.84 152.84,351.28 153.33,351.32 158.42,349.6 159.34,348.5 160.07,346.31 160.44,342.62 158.74,338.64 156.39,332.12 156.33,330.56 157.65,322.64 159.62,318.38 161.26,315.52 167.12,316.04 170.38,311.56 172,308.05 172.44,307 172.61,305.69 171.01,301.36 170.98,298.51 171.52,296.27 174.33,292.84 176.9,287.2 176.6,282.76 175.56,278.64 175.85,275.94 181.06,265.83 185.15,260.65 190.39,255.5 189.83,254.94 194.9,249.75 196.46,238.45Z"/>
    <path id="yuseong" data-name="유성구" data-code="30200" fill="#D5ECFF" stroke="#FFFFFF" stroke-width="1" stroke-linejoin="round" d="M64.99,358 65.79,358.32 66.73,357.74 67.66,355.86 69.63,353.23 75.26,349.5 78.02,348.72 83.25,345.77 83.08,343.13 83.57,341.29 85.9,339.61 87.05,337.63 86.98,336.04 87.58,331.95 91.44,327.75 93.15,326.53 94.53,326.45 95.76,325.92 96.64,325.3 97.89,323.77 98.22,322.68 98.37,316.98 100.76,309.77 101.72,308.36 103.87,305.85 109.69,303.5 113.36,303.33 113.37,298.88 113.04,298.86 113.03,294.04 114.07,291.78 115.31,290.43 118.91,286.92 120.54,286.3 121.64,279.54 119.33,279.48 119.05,278.51 118.03,272.11 117.15,264.22 117.15,261.47 119.69,261.44 119.74,258.52 137.93,258.6 138.18,257.4 137.2,251.2 132.55,232.67 133.04,229.68 141.69,219.35 149.73,212 152.25,210.19 155.5,208.29 160.07,204.07 162.82,202.37 169.51,198.97 172.37,199.08 180.6,197.99 182.64,198.35 184.4,199.06 186.69,199.26 193.46,195.91 196.25,194.8 198.81,194.13 203.42,190.74 204.94,188.09 205.69,186.09 205.78,185.02 205.83,182.91 205.23,174.07 206,166.42 206.95,163.41 207.93,161.89 208.95,157.22 209.19,152.13 210.27,144.01 211.53,141.81 214.29,138.73 214.57,137.24 214.44,134.96 212.46,130.05 209.72,127.07 208.81,126.64 207.08,126.39 205.56,124.68 204.19,122.58 188.11,106.07 183.6,100.29 182.2,97.85 181.65,90.94 183.05,87.03 184.92,85.14 187.28,84.59 190.74,84.3 195.59,81.94 195.92,79.31 195.69,77.62 194.09,75.14 193.66,73.61 193.11,69.38 193.3,56.4 194.15,53.97 195.56,51.05 196.67,47.64 197.68,39.83 197.56,37.11 195.75,33.8 193.71,31.08 190.42,28.02 185.35,22.74 182.45,21.46 178.41,14.84 176.66,13.49 174.55,12.45 172.28,12 170.39,12.62 167.44,15.72 165.33,18.88 163.81,21.67 162.07,23.75 158.79,26.85 156.5,27.92 153.31,27.56 149.49,26.25 147,25.76 145.85,27 144.59,31.39 144.44,34.08 145.48,39.64 146.96,45.55 148.18,47.92 150.31,49.17 150.74,50.17 150.63,54.16 149.71,56.16 146.4,59.54 143.65,63.71 141.55,64.41 140.66,65.42 142.9,74.32 143.91,77.13 140.58,84.61 137.29,89.04 132.38,90.05 127.39,94.08 125.27,100.74 124.87,103.38 123.69,103.59 121.74,106.52 122.29,112.59 122.7,113.85 115.46,119.6 108.91,125.35 106.22,127.13 103.45,126.86 102.08,126.26 100.91,124.68 100.04,124.62 99.59,124.8 98.18,126.7 97.49,128.49 94.8,129.91 94.35,129.75 92.33,126.63 87.2,122.91 84.39,123.38 80.89,123.53 79.46,122.47 77.93,123.09 76.41,127.03 75.51,127.07 74.37,126.42 73.89,125.63 72.68,125.33 69.98,125.9 67.9,126.71 66.69,130.72 62.03,130.87 61.81,132.75 62.04,135.43 61.72,135.97 58.38,137.01 55.12,137.33 53.84,137.94 53.3,145.75 51.9,155.15 49.82,160.85 49.45,163.6 49.75,164.74 49.59,166.38 50.15,171.49 49.74,188.69 49.99,189.43 51.16,190.19 51.5,190.76 52.28,196.11 50.23,202.23 48.26,205.04 48.19,210.18 45.86,212.1 42.79,213.46 40.31,216.39 40.68,221.76 41.98,226.26 46.51,230.97 48.62,234.01 48.6,234.48 47.92,236.77 45.84,240.18 44.5,240.71 42.46,241.04 41.44,242.15 40.73,244.95 39.23,247.2 38.38,247.84 35.98,248.93 36.1,255.01 36.97,259.5 34.61,264 31.46,265.62 28.82,265.9 27.24,265.81 27.94,271.12 27.98,273.51 27.22,276.3 25.81,277.8 24.97,279.2 24.59,282.66 25.71,298.24 26.18,300.07 27.77,302.94 26.6,311.13 26.2,311.5 24.82,311.74 22.14,311.32 19.94,310.69 18.12,311.34 16.8,312.52 12.95,317.84 12,319.61 12.93,320.75 13.5,322.59 14.45,327.99 15.1,329.86 18.16,331.63 23.11,337.8 27.83,340.86 29.87,341.05 35.14,343.46 39.05,348.01 44.52,351.61 52.3,356.22 54.64,356.94 56.08,357 59.73,355.75 63.58,355.72 64.64,356.32Z"/>
    <path id="daedeok" data-name="대덕구" data-code="30230" fill="#D5ECFF" stroke="#FFFFFF" stroke-width="1" stroke-linejoin="round" d="M196.01,232.33 201.49,234.07 202.75,234.65 204.12,235.67 205.41,237.02 206.37,238.51 207.65,241.68 213.37,240.24 217,240.57 214.2,237.99 215.69,234.94 218.29,234.55 220.76,234.76 222.01,234.12 223.06,231.65 224.73,228.76 225.52,228.66 225.1,225.09 226.89,222.56 228.77,219.2 230.97,219.19 234.38,216.72 235.94,217.46 236.8,217.45 238.22,218.21 238.9,219.89 239.4,222.74 239.36,225.04 241.5,227.24 241.41,228.98 245.84,231.3 246.9,228.98 246.25,229.2 246.71,227.16 248,226.59 256.86,225.89 256.04,227.62 258.69,228.15 259.99,227.93 261.62,228.07 267.94,231.34 269.38,230.18 269.35,229.13 268.88,227.92 268.96,224.92 269.97,221.56 270.49,220.67 270.59,218.8 270.29,217.1 267.73,215.89 266.03,211.41 262.93,204.6 260.08,199.75 254.78,191.56 253.09,187.19 253.35,186.38 255.24,183.29 257.07,178.3 257.71,175.77 256.21,173.79 256.51,165.3 257.78,160.5 260.25,154.88 264.66,152.47 267,149.52 270.95,146.92 273.18,144.06 278.45,136.18 284.34,126.61 288.47,118.45 288.33,116.31 289.04,114.55 291.67,110.17 294.31,110.99 297.78,111.32 298.04,108.88 301.33,99.98 303.56,97.11 305.53,95.08 308,92.73 310.7,91.07 312.15,89.47 313.62,86.99 313.96,85.9 314.19,84.47 314.08,81.51 313.64,80.13 312.01,78.15 309.23,77.64 301.93,79.33 295.38,79.13 289.65,77.21 286.14,74.48 286.08,71.1 292.25,48.91 291.79,45.48 290.65,45.11 288.89,45.06 285.97,45.71 277.14,49.8 274.01,52.91 272.45,54.82 270.69,57.66 268.9,62.41 268.09,65.76 267.84,67.97 267.86,71.73 268.3,74.03 268.32,75.12 268.01,76.34 266.55,78.21 263.94,80.63 257.56,84.85 255.33,85.82 253.26,86.33 249.91,86.51 248.02,86.37 243.73,85.26 242.27,84.42 239.99,80.85 235.34,76.22 231.71,75.36 227.63,75.4 223.55,75.82 224.01,78.14 221.65,78.4 221.66,76.54 220.23,77.09 215.08,78.26 207.59,78.98 199.38,78.73 197.74,78.46 195.69,77.62 195.92,79.31 195.59,81.94 190.74,84.3 187.28,84.59 184.92,85.14 183.05,87.03 181.65,90.94 182.2,97.85 183.6,100.29 188.11,106.07 204.19,122.58 205.56,124.68 207.08,126.39 208.81,126.64 209.72,127.07 212.46,130.05 214.44,134.96 214.57,137.24 214.29,138.73 211.53,141.81 210.27,144.01 209.19,152.13 208.95,157.22 207.93,161.89 206.95,163.41 206,166.42 205.23,174.07 205.83,182.91 205.78,185.02 205.69,186.09 204.94,188.09 203.42,190.74 198.81,194.13 196.25,194.8 193.46,195.91 186.69,199.26 186.3,200.27 186.48,210.78 187.99,210.8 193.03,216.45 195.94,221.72 196.32,223.25 196.44,225.92 196.43,230.27Z"/>
  </g>
  <g id="labels">
    <text id="label-dong" x="299.9" y="188.4" font-family="Noto Sans KR" font-size="11" font-weight="700" fill="#FFFFFF" text-anchor="middle" dominant-baseline="central">동구</text>
    <text id="label-jung" x="208.4" y="293.4" font-family="Noto Sans KR" font-size="11" font-weight="500" fill="#123A6A" text-anchor="middle" dominant-baseline="central">중구</text>
    <text id="label-seo" x="106.9" y="379.0" font-family="Noto Sans KR" font-size="11" font-weight="500" fill="#123A6A" text-anchor="middle" dominant-baseline="central">서구</text>
    <text id="label-yuseong" x="103.8" y="182.2" font-family="Noto Sans KR" font-size="11" font-weight="500" fill="#123A6A" text-anchor="middle" dominant-baseline="central">유성구</text>
    <text id="label-daedeok" x="246.5" y="121.2" font-family="Noto Sans KR" font-size="11" font-weight="500" fill="#123A6A" text-anchor="middle" dominant-baseline="central">대덕구</text>
  </g>
</svg>
